<?xml version="1.0" encoding="UTF-8" standalone="no"?>
<svg
   width="1446.665"
   height="485.198"
   viewBox="0 0 1446.665 485.198"
   version="1.1"
   xml:space="preserve"
   style="clip-rule:evenodd;fill-rule:evenodd;stroke-linejoin:round;stroke-miterlimit:2"
   id="svg17"
   sodipodi:docname="sohail-ansari.logo.svg"
   inkscape:version="1.3.1 (91b66b0783, 2023-11-16)"
   xmlns:inkscape="http://www.inkscape.org/namespaces/inkscape"
   xmlns:sodipodi="http://sodipodi.sourceforge.net/DTD/sodipodi-0.dtd"
   xmlns="http://www.w3.org/2000/svg"
   xmlns:svg="http://www.w3.org/2000/svg"><defs
     id="defs17" /><sodipodi:namedview
     id="namedview17"
     pagecolor="#ffffff"
     bordercolor="#000000"
     borderopacity="0.25"
     inkscape:showpageshadow="2"
     inkscape:pageopacity="0.0"
     inkscape:pagecheckerboard="0"
     inkscape:deskcolor="#d1d1d1"
     inkscape:zoom="0.39094222"
     inkscape:cx="919.57323"
     inkscape:cy="653.54926"
     inkscape:window-width="1920"
     inkscape:window-height="986"
     inkscape:window-x="-11"
     inkscape:window-y="-11"
     inkscape:window-maximized="1"
     inkscape:current-layer="svg17" /><g
     id="g17"
     transform="translate(-236.795,-718.182)"><g
       id="g7"><g
         id="g6"><g
           id="g5"><path
             d="m 530.894,1081.38 c 0,0 10e-4,0 10e-4,0 8.466,11.315 21.771,17.976 35.902,17.976 h 80.48 c 0.538,0 1.046,0.251 1.374,0.678 9.46,12.336 16.462,21.664 26.71,34.964 0.404,0.525 0.474,1.234 0.179,1.827 -0.294,0.593 -0.901,0.967 -1.563,0.962 -8.865,-0.06 -31.525,-0.214 -35.46,-0.24 -0.392,0 -0.783,0 -1.174,0 h -30.121 c -30.778,0 -59.758,-14.501 -78.21,-39.134 -3.742,-4.995 -7.068,-9.435 -9.385,-12.528 -0.639,-0.853 -0.741,-1.993 -0.264,-2.946 0.476,-0.953 1.451,-1.555 2.516,-1.555 4.127,0 9.015,0 9.015,0 z"
             style="fill:#ffffff"
             id="path1" /><path
             d="m 593.822,1132.31 c 0,0 0,0 0,0 8.496,11.354 21.72,18.197 35.896,18.575 21.916,0.584 52.747,1.406 58.178,1.551 0.526,0.014 1.017,0.267 1.335,0.687 9.728,12.865 18.018,23.637 26.637,35.647 0.384,0.536 0.431,1.244 0.12,1.825 -0.311,0.582 -0.925,0.936 -1.584,0.915 -8.662,-0.282 -30.395,-0.991 -30.395,-0.991 0,0 -6.769,-0.221 -15.859,-0.517 -29.644,-0.966 -57.244,-15.344 -75.026,-39.081 -4.221,-5.635 -8.01,-10.694 -10.569,-14.11 -0.639,-0.852 -0.741,-1.993 -0.264,-2.946 0.476,-0.953 1.451,-1.555 2.516,-1.555 4.127,0 9.015,0 9.015,0 z"
             style="fill:#ffffff"
             id="path2" /><path
             d="m 577.364,946.813 c -0.413,-0.325 -0.672,-0.82 -0.661,-1.345 0.637,-32.789 -35.791,-106.16 -115.812,-99.442 -77.207,6.482 -98.846,78.422 -97.192,106.034 1.904,31.773 10.557,53.705 27.06,70.905 37.397,38.976 66.277,29.66 128.306,23.303 20.476,-2.099 43.314,-2.768 61.425,-2.275 16.592,0.505 32.074,8.453 42.155,21.64 3.692,4.751 7.58,9.844 11.442,15.174 0.392,0.543 0.436,1.263 0.114,1.849 -0.323,0.586 -0.954,0.934 -1.622,0.894 -78.638,-4.837 -129.237,11.444 -154.841,12.45 -136.467,5.36 -208.163,-167.375 -96.199,-257.203 34.816,-27.933 82.344,-36.859 122.579,-26.567 41.011,10.49 68.4,34.416 86.274,60.792 15.256,22.511 21.585,42.45 23.342,73.065 0.459,7.984 -0.239,14.226 -0.351,20.01 -0.01,0.691 -0.429,1.31 -1.067,1.575 -0.638,0.266 -1.304,0.043 -1.869,-0.354 -10.619,-7.459 -23.832,-13.221 -33.083,-20.505 z"
             style="fill:#ffffff"
             id="path3" /><path
             d="m 431.753,928.715 c -6.618,12.368 -5.077,30.578 3.601,42.915 9.144,12.999 25.336,20.086 41.211,17.833 18.747,-2.25 56.121,-8.536 64.975,-9.29 81.671,-6.958 151.866,108.219 184.325,149.326 0.415,0.52 0.496,1.232 0.207,1.831 -0.289,0.6 -0.895,0.981 -1.561,0.981 -7.45,0 -14.827,0 -23.157,0 -0.529,0 -1.029,-0.241 -1.358,-0.656 -57.563,-72.684 -76.481,-118.032 -146.26,-112.564 -30.503,2.39 -68.431,8.186 -82.565,9.584 -71.745,7.092 -109.574,-93.321 -48.702,-139.009 18.99,-14.254 36.523,-16.793 54.096,-15.92 39.691,1.971 63.471,35.856 67.021,50.208 0.148,0.668 -0.112,1.361 -0.665,1.766 -0.552,0.405 -1.292,0.445 -1.884,0.102 -15.408,-9.654 -83.764,-44.797 -109.284,2.893 z"
             style="fill:#ffffff"
             id="path4" /><path
             d="m 746.364,1194.44 c -0.539,0 -1.048,-0.251 -1.376,-0.68 -3.434,-4.492 -22.923,-29.984 -29.449,-38.519 -0.4,-0.523 -0.468,-1.228 -0.176,-1.819 0.292,-0.591 0.893,-0.965 1.552,-0.965 6.885,0 21.83,0 25.559,0 0.54,0 1.049,0.252 1.376,0.68 3.435,4.493 22.924,29.984 29.449,38.519 0.401,0.524 0.469,1.229 0.177,1.82 -0.292,0.59 -0.894,0.964 -1.553,0.964 -6.884,0 -21.83,0 -25.559,0 z"
             style="fill:#ffffff"
             id="path5" /></g><path
           d="m 561.626,1182.54 c -26.378,10.062 -54.995,15.542 -84.881,15.542 -132.432,0 -239.95,-107.518 -239.95,-239.95 0,-132.432 107.518,-239.95 239.95,-239.95 132.432,0 239.95,107.518 239.95,239.95 0,32.394 -6.437,63.297 -18.111,91.49 -9.559,-11.703 -19.919,-23.48 -30.953,-34.414 5.471,-18.069 8.375,-37.236 8.375,-57.076 0,-109.975 -89.286,-199.26 -199.261,-199.26 -109.975,0 -199.26,89.285 -199.26,199.26 0,109.975 89.285,199.26 199.26,199.26 16.584,0 32.697,-2.028 48.102,-5.868 l 1.13,1.509 c 9.507,12.692 21.776,22.727 35.649,29.507 z"
           style="fill:#ffffff"
           id="path6" /></g></g><g
       id="g16"><path
         d="m 852.328,996.457 c -10.27,0 -20.461,-0.973 -30.575,-2.918 -10.114,-1.945 -18.439,-4.629 -24.974,-8.052 v -37.11 c 8.402,4.356 17.155,7.624 26.257,9.802 9.103,2.179 17.778,3.268 26.024,3.268 7.625,0 13.382,-1.167 17.272,-3.501 3.89,-2.334 5.835,-5.679 5.835,-10.036 0,-3.268 -1.05,-6.107 -3.151,-8.519 -2.101,-2.412 -5.174,-4.629 -9.219,-6.652 -4.046,-2.023 -10.348,-4.824 -18.906,-8.403 -15.093,-6.379 -26.062,-13.459 -32.909,-21.239 -6.846,-7.78 -10.269,-17.349 -10.269,-28.708 0,-9.336 2.606,-17.66 7.819,-24.974 5.212,-7.313 12.486,-12.992 21.822,-17.038 9.336,-4.045 20.073,-6.068 32.209,-6.068 9.959,0 18.828,0.778 26.608,2.334 7.78,1.556 15.249,4.045 22.406,7.469 v 36.176 c -13.693,-7.157 -27.463,-10.736 -41.311,-10.736 -7.469,0 -13.421,1.206 -17.855,3.618 -4.435,2.412 -6.652,5.874 -6.652,10.386 0,4.512 2.256,8.169 6.768,10.97 4.513,2.801 12.837,6.613 24.974,11.436 11.048,4.513 19.644,8.947 25.791,13.304 6.146,4.357 10.619,9.414 13.42,15.171 2.801,5.757 4.201,13.07 4.201,21.94 0,15.093 -5.485,26.879 -16.454,35.36 -10.97,8.48 -27.347,12.72 -49.131,12.72 z"
         style="fill:#ffffff;fill-rule:nonzero"
         id="path7" /><path
         d="m 1019.68,996.457 c -16.493,0 -31.392,-3.579 -44.696,-10.737 -13.304,-7.157 -23.806,-17.154 -31.509,-29.991 -7.702,-12.837 -11.553,-27.58 -11.553,-44.229 0,-16.65 3.851,-31.432 11.553,-44.346 7.703,-12.915 18.205,-22.951 31.509,-30.109 13.304,-7.157 28.203,-10.736 44.696,-10.736 16.338,0 31.159,3.579 44.463,10.736 13.303,7.158 23.767,17.194 31.392,30.109 7.624,12.914 11.436,27.696 11.436,44.346 0,16.649 -3.812,31.392 -11.436,44.229 -7.625,12.837 -18.089,22.834 -31.392,29.991 -13.304,7.158 -28.125,10.737 -44.463,10.737 z m 0,-38.744 c 8.247,0 15.793,-1.868 22.64,-5.602 6.846,-3.734 12.292,-9.103 16.338,-16.105 4.045,-7.002 6.068,-15.171 6.068,-24.506 0,-9.336 -1.984,-17.467 -5.952,-24.391 -3.967,-6.924 -9.374,-12.292 -16.221,-16.104 -6.846,-3.812 -14.47,-5.718 -22.873,-5.718 -8.558,0 -16.26,1.906 -23.106,5.718 -6.847,3.812 -12.254,9.18 -16.222,16.104 -3.967,6.924 -5.951,15.055 -5.951,24.391 0,9.335 1.984,17.504 5.951,24.506 3.968,7.002 9.414,12.371 16.338,16.105 6.925,3.734 14.588,5.602 22.99,5.602 z"
         style="fill:#ffffff;fill-rule:nonzero"
         id="path8" /><path
         d="m 1125.64,829.81 h 41.312 v 63.018 h 63.951 V 829.81 h 41.312 v 163.146 h -41.312 v -65.819 h -63.951 v 65.819 h -41.312 z"
         style="fill:#ffffff;fill-rule:nonzero"
         id="path9" /><path
         d="m 1356.24,829.81 h 40.611 l 65.118,163.146 h -42.245 l -13.07,-33.61 h -60.217 l -13.071,33.61 h -42.478 z m 40.144,97.794 -19.839,-54.849 -20.072,54.849 z"
         style="fill:#ffffff;fill-rule:nonzero"
         id="path10" /><rect
         x="1480.64"
         y="829.81"
         width="41.312"
         height="163.146"
         style="fill:#ffffff;fill-rule:nonzero"
         id="rect10" /><path
         d="m 1545.29,829.81 h 41.311 v 128.369 h 70.954 v 34.777 H 1545.29 Z"
         style="fill:#ffffff;fill-rule:nonzero"
         id="path11" /><path
         d="m 915.346,1036.73 h 22.873 l 65.118,163.146 h -24.273 l -16.338,-40.611 h -72.121 l -15.871,40.611 h -24.507 z m 40.845,102.696 -29.409,-76.322 -29.408,76.322 z"
         style="fill:#ffffff;fill-rule:nonzero"
         id="path12" /><path
         d="m 1026.68,1036.73 h 22.64 l 83.09,123.001 V 1036.73 h 24.04 v 163.146 h -22.873 l -83.09,-123.001 v 123.001 h -23.807 z"
         style="fill:#ffffff;fill-rule:nonzero"
         id="path13" /><path
         d="m 1239.07,1203.38 c -9.336,0 -18.555,-0.817 -27.658,-2.451 -9.102,-1.634 -16.532,-3.851 -22.289,-6.652 v -21.472 c 14.937,7.002 31.042,10.503 48.313,10.503 24.274,0 36.411,-8.169 36.411,-24.507 0,-5.602 -1.323,-10.114 -3.968,-13.537 -2.645,-3.424 -6.457,-6.419 -11.437,-8.986 -4.979,-2.568 -13.07,-6.108 -24.273,-10.62 -15.404,-6.224 -26.53,-13.07 -33.376,-20.539 -6.847,-7.469 -10.27,-16.883 -10.27,-28.241 0,-8.558 2.334,-16.144 7.002,-22.757 4.668,-6.613 11.203,-11.747 19.606,-15.404 8.402,-3.657 18.049,-5.485 28.941,-5.485 8.869,0 16.883,0.7 24.04,2.101 7.158,1.4 14.16,3.656 21.006,6.768 v 20.539 c -13.537,-6.068 -27.23,-9.102 -41.078,-9.102 -11.203,0 -19.761,2.023 -25.674,6.068 -5.913,4.046 -8.869,9.803 -8.869,17.272 0,5.134 1.284,9.452 3.851,12.953 2.567,3.501 6.38,6.613 11.437,9.336 5.057,2.723 12.564,6.108 22.523,10.153 11.047,4.513 19.761,8.792 26.14,12.837 6.38,4.046 11.242,8.986 14.588,14.821 3.345,5.835 5.018,13.109 5.018,21.823 0,14.159 -5.057,25.129 -15.171,32.909 -10.114,7.78 -25.052,11.67 -44.813,11.67 z"
         style="fill:#ffffff;fill-rule:nonzero"
         id="path14" /><path
         d="m 1377.01,1036.73 h 22.873 l 65.119,163.146 h -24.274 l -16.338,-40.611 h -72.12 l -15.871,40.611 h -24.507 z m 40.845,102.696 -29.408,-76.322 -29.409,76.322 z"
         style="fill:#ffffff;fill-rule:nonzero"
         id="path15" /><path
         d="m 1488.34,1036.73 h 65.586 c 17.427,0 30.808,4.201 40.144,12.604 9.336,8.402 14.004,20.694 14.004,36.877 0,11.981 -3.19,22.134 -9.569,30.458 -6.38,8.325 -15.405,13.965 -27.075,16.922 l 35.944,66.285 h -24.74 l -34.777,-64.418 h -35.71 v 64.418 h -23.807 z m 61.618,78.656 c 10.425,0 18.711,-2.451 24.857,-7.353 6.146,-4.901 9.219,-12.175 9.219,-21.822 0,-10.581 -2.995,-18.128 -8.986,-22.64 -5.99,-4.512 -14.354,-6.769 -25.09,-6.769 h -37.811 v 58.584 z"
         style="fill:#ffffff;fill-rule:nonzero"
         id="path16" /><rect
         x="1659.42"
         y="1036.73"
         width="24.040001"
         height="163.146"
         style="fill:#ffffff;fill-rule:nonzero"
         id="rect16" /></g></g></svg>
