<svg width="31" height="30" viewBox="0 0 31 30" fill="none" xmlns="http://www.w3.org/2000/svg">
<circle cx="16" cy="15" r="15" fill="#79B2F2"/>
<path d="M20.7746 7.44955C20.7746 7.33172 20.7278 7.21871 20.6444 7.13539C20.5611 7.05206 20.4481 7.00525 20.3303 7.00525H18.1088C16.9901 6.94953 15.8949 7.33883 15.0624 8.08808C14.2299 8.83733 13.7278 9.88564 13.6658 11.0039V13.4032H11.4443C11.3265 13.4032 11.2135 13.45 11.1301 13.5333C11.0468 13.6166 11 13.7296 11 13.8475V16.1578C11 16.2756 11.0468 16.3886 11.1301 16.472C11.2135 16.5553 11.3265 16.6021 11.4443 16.6021H13.6658V22.5557C13.6658 22.6735 13.7126 22.7865 13.7959 22.8699C13.8792 22.9532 13.9923 23 14.1101 23H16.7759C16.8937 23 17.0067 22.9532 17.09 22.8699C17.1734 22.7865 17.2202 22.6735 17.2202 22.5557V16.6021H19.5483C19.6471 16.6035 19.7436 16.572 19.8224 16.5124C19.9013 16.4529 19.958 16.3687 19.9837 16.2733L20.6235 13.963C20.6412 13.8973 20.6436 13.8285 20.6305 13.7618C20.6173 13.6951 20.5891 13.6323 20.5479 13.5782C20.5067 13.5241 20.4536 13.4802 20.3928 13.4499C20.332 13.4195 20.265 13.4035 20.197 13.4032H17.2202V11.0039C17.2423 10.784 17.3456 10.5802 17.5099 10.4323C17.6742 10.2844 17.8877 10.2031 18.1088 10.2042H20.3303C20.4481 10.2042 20.5611 10.1574 20.6444 10.0741C20.7278 9.99075 20.7746 9.87774 20.7746 9.7599V7.44955Z" fill="white"/>
</svg>
