<svg width="31" height="30" viewBox="0 0 31 30" fill="none" xmlns="http://www.w3.org/2000/svg">
<circle cx="15.5" cy="15" r="15" fill="#79B2F2"/>
<mask id="path-2-inside-1_42_681" fill="white">
<path d="M6.54389 7L13.4935 16.2923L6.5 23.8473H8.07395L14.1967 17.2328L19.1438 23.8473H24.5L17.1594 14.0323L23.6689 7H22.0949L16.4561 13.0918L11.9001 7H6.54389ZM8.8585 8.15938H11.3192L22.185 22.6877H19.7244L8.8585 8.15938Z"/>
</mask>
<path d="M6.54389 7L13.4935 16.2923L6.5 23.8473H8.07395L14.1967 17.2328L19.1438 23.8473H24.5L17.1594 14.0323L23.6689 7H22.0949L16.4561 13.0918L11.9001 7H6.54389ZM8.8585 8.15938H11.3192L22.185 22.6877H19.7244L8.8585 8.15938Z" fill="#79B2F2"/>
<path d="M6.54389 7V5H2.55063L4.94227 8.19784L6.54389 7ZM13.4935 16.2923L14.9612 17.6509L16.0928 16.4284L15.0951 15.0944L13.4935 16.2923ZM6.5 23.8473L5.0323 22.4887L1.9233 25.8473H6.5V23.8473ZM8.07395 23.8473V25.8473H8.94796L9.54167 25.2059L8.07395 23.8473ZM14.1967 17.2328L15.7983 16.0349L14.3602 14.112L12.729 15.8742L14.1967 17.2328ZM19.1438 23.8473L17.5422 25.0451L18.1421 25.8473H19.1438V23.8473ZM24.5 23.8473V25.8473H28.4933L26.1016 22.6494L24.5 23.8473ZM17.1594 14.0323L15.6917 12.6737L14.5601 13.8962L15.5578 15.2302L17.1594 14.0323ZM23.6689 7L25.1366 8.3586L28.2455 5H23.6689V7ZM22.0949 7V5H21.2209L20.6272 5.64142L22.0949 7ZM16.4561 13.0918L14.8545 14.2897L16.2927 16.2127L17.9239 14.4504L16.4561 13.0918ZM11.9001 7L13.5017 5.80217L12.9018 5H11.9001V7ZM8.8585 8.15938V6.15938H4.86519L7.25689 9.35723L8.8585 8.15938ZM11.3192 8.15938L12.9208 6.96152L12.3208 6.15938H11.3192V8.15938ZM22.185 22.6877V24.6877H26.1783L23.7866 21.4899L22.185 22.6877ZM19.7244 22.6877L18.1228 23.8856L18.7227 24.6877H19.7244V22.6877ZM4.94227 8.19784L11.8919 17.4901L15.0951 15.0944L8.14551 5.80216L4.94227 8.19784ZM12.0258 14.9337L5.0323 22.4887L7.9677 25.2059L14.9612 17.6509L12.0258 14.9337ZM6.5 25.8473H8.07395V21.8473H6.5V25.8473ZM9.54167 25.2059L15.6645 18.5914L12.729 15.8742L6.60624 22.4887L9.54167 25.2059ZM12.5951 18.4306L17.5422 25.0451L20.7454 22.6494L15.7983 16.0349L12.5951 18.4306ZM19.1438 25.8473H24.5V21.8473H19.1438V25.8473ZM26.1016 22.6494L18.761 12.8345L15.5578 15.2302L22.8984 25.0451L26.1016 22.6494ZM18.6271 15.3909L25.1366 8.3586L22.2011 5.6414L15.6917 12.6737L18.6271 15.3909ZM23.6689 5H22.0949V9H23.6689V5ZM20.6272 5.64142L14.9884 11.7333L17.9239 14.4504L23.5627 8.35858L20.6272 5.64142ZM18.0578 11.894L13.5017 5.80217L10.2985 8.19783L14.8545 14.2897L18.0578 11.894ZM11.9001 5H6.54389V9H11.9001V5ZM8.8585 10.1594H11.3192V6.15938H8.8585V10.1594ZM9.71755 9.35723L20.5834 23.8856L23.7866 21.4899L12.9208 6.96152L9.71755 9.35723ZM22.185 20.6877H19.7244V24.6877H22.185V20.6877ZM21.326 21.4899L10.4601 6.96152L7.25689 9.35723L18.1228 23.8856L21.326 21.4899Z" fill="white" mask="url(#path-2-inside-1_42_681)"/>
</svg>
