<svg width="31" height="30" viewBox="0 0 31 30" fill="none" xmlns="http://www.w3.org/2000/svg">
<circle cx="15.5" cy="15" r="15" fill="#79B2F2"/>
<path fill-rule="evenodd" clip-rule="evenodd" d="M23.5 23H20.3V17.4008C20.3 15.8648 19.6224 15.0078 18.4072 15.0078C17.0848 15.0078 16.3 15.9008 16.3 17.4008V23H13.1V12.6H16.3V13.7695C16.3 13.7695 17.304 12.0078 19.5664 12.0078C21.8296 12.0078 23.5 13.3889 23.5 16.2465V23ZM9.4536 10.9367C8.3744 10.9367 7.5 10.0552 7.5 8.96797C7.5 7.88157 8.3744 7 9.4536 7C10.532 7 11.4064 7.88157 11.4064 8.96797C11.4072 10.0552 10.532 10.9367 9.4536 10.9367ZM7.5 23H11.5V12.6H7.5V23Z" fill="white"/>
</svg>
