<svg width="175" height="50" viewBox="0 0 175 50" fill="none" xmlns="http://www.w3.org/2000/svg">
<circle cx="25" cy="25" r="25" fill="white"/>
<path d="M25.5 10.75C19.2868 10.75 14.25 14.3652 14.25 19.75C14.25 23.8284 18.6394 31.8337 21.2409 34.75H29.7591C32.3606 31.8337 36.75 23.8284 36.75 19.75C36.75 14.3652 31.7132 10.75 25.5 10.75Z" stroke="#0077FF" stroke-width="2" stroke-linecap="round" stroke-linejoin="round"/>
<path d="M25.5 10.75C21.772 10.75 18.75 14.3652 18.75 19.75C18.75 23.8284 21.3836 31.8337 22.9445 34.75" stroke="#0077FF" stroke-width="2" stroke-linecap="round" stroke-linejoin="round"/>
<path d="M25.5 10.75C29.228 10.75 32.25 14.3652 32.25 19.75C32.25 23.8284 29.6164 31.8337 28.0555 34.75" stroke="#0077FF" stroke-width="2" stroke-linecap="round" stroke-linejoin="round"/>
<path d="M25.5 10.75C24.2573 10.75 23.25 14.3652 23.25 19.75C23.25 23.8284 24.1279 31.8337 24.6482 34.75" stroke="#0077FF" stroke-width="2" stroke-linecap="round" stroke-linejoin="round"/>
<path d="M25.5 10.75C26.7427 10.75 27.75 14.3652 27.75 19.75C27.75 23.8284 26.8721 31.8337 26.3518 34.75" stroke="#0077FF" stroke-width="2" stroke-linecap="round" stroke-linejoin="round"/>
<path d="M30 34.4775V39.25H21V34.4775" stroke="#0077FF" stroke-width="2" stroke-linecap="round" stroke-linejoin="round"/>
<path d="M56.2 35.5L62.775 18H65.65L72.225 35.5H68.55L67.375 32.025H60.95L59.775 35.5H56.2ZM62 29.025H66.35L64.2 22.675L62 29.025ZM78.7174 35.775C76.9507 35.775 75.5174 35.2583 74.4174 34.225C73.3174 33.175 72.7674 31.5917 72.7674 29.475C72.7674 28.1583 73.009 27.0333 73.4924 26.1C73.9924 25.15 74.6757 24.425 75.5424 23.925C76.409 23.4083 77.409 23.15 78.5424 23.15C79.6757 23.15 80.634 23.425 81.4174 23.975C82.2174 24.5083 82.8257 25.25 83.2424 26.2C83.6591 27.15 83.8674 28.2417 83.8674 29.475V30.15H75.8674C75.9507 31.2667 76.2507 32.0333 76.7674 32.45C77.3007 32.85 77.9674 33.05 78.7674 33.05C79.5007 33.05 80.1007 32.875 80.5674 32.525C81.0341 32.175 81.4507 31.65 81.8174 30.95L84.1174 32.575C83.4674 33.725 82.6924 34.55 81.7924 35.05C80.9091 35.5333 79.8841 35.775 78.7174 35.775ZM75.9924 27.75H80.7674C80.4674 26.3167 79.709 25.6 78.4924 25.6C77.8257 25.6 77.284 25.7667 76.8674 26.1C76.4507 26.4333 76.159 26.9833 75.9924 27.75ZM86.3807 35.5V23.45H89.2057L89.4057 25.075C89.7057 24.4917 90.164 24.025 90.7807 23.675C91.3973 23.325 92.0473 23.15 92.7307 23.15C93.014 23.15 93.2723 23.175 93.5057 23.225C93.739 23.2583 93.939 23.3 94.1057 23.35V26.4C93.8557 26.3167 93.589 26.2583 93.3057 26.225C93.0223 26.175 92.6723 26.15 92.2557 26.15C91.489 26.15 90.839 26.4 90.3057 26.9C89.789 27.3833 89.5307 28.1 89.5307 29.05V35.5H86.3807ZM101.201 35.775C100.084 35.775 99.076 35.5167 98.176 35C97.2926 34.4833 96.5926 33.75 96.076 32.8C95.576 31.85 95.326 30.7417 95.326 29.475C95.326 28.1917 95.576 27.0833 96.076 26.15C96.5926 25.2 97.2926 24.4667 98.176 23.95C99.076 23.4167 100.084 23.15 101.201 23.15C102.334 23.15 103.343 23.4167 104.226 23.95C105.109 24.4667 105.801 25.2 106.301 26.15C106.818 27.0833 107.076 28.1917 107.076 29.475C107.076 30.7417 106.818 31.85 106.301 32.8C105.801 33.75 105.109 34.4833 104.226 35C103.343 35.5167 102.334 35.775 101.201 35.775ZM101.201 32.925C102.001 32.925 102.651 32.6333 103.151 32.05C103.668 31.45 103.926 30.5917 103.926 29.475C103.926 28.3417 103.668 27.4833 103.151 26.9C102.651 26.3 102.001 26 101.201 26C100.401 26 99.751 26.3 99.251 26.9C98.7676 27.4833 98.526 28.3417 98.526 29.475C98.526 30.5917 98.7676 31.45 99.251 32.05C99.751 32.6333 100.401 32.925 101.201 32.925ZM113.009 35.5L106.884 18H110.359L114.659 31.125L118.984 18H122.459L116.309 35.5H113.009ZM124.475 35.5V23.45H127.625V35.5H124.475ZM126.025 21.65C125.492 21.65 125.034 21.4583 124.65 21.075C124.284 20.6917 124.1 20.2333 124.1 19.7C124.1 19.1667 124.284 18.7167 124.65 18.35C125.034 17.9667 125.492 17.775 126.025 17.775C126.559 17.775 127.009 17.9667 127.375 18.35C127.759 18.7167 127.95 19.1667 127.95 19.7C127.95 20.2333 127.759 20.6917 127.375 21.075C127.009 21.4583 126.559 21.65 126.025 21.65ZM135.214 35.75C134.247 35.75 133.314 35.5917 132.414 35.275C131.53 34.9417 130.73 34.4 130.014 33.65L131.939 31.525C132.889 32.525 134.039 33.025 135.389 33.025C136.022 33.025 136.464 32.95 136.714 32.8C136.964 32.6333 137.089 32.3333 137.089 31.9C137.089 31.7167 137.022 31.5583 136.889 31.425C136.772 31.275 136.514 31.1417 136.114 31.025C135.73 30.8917 135.147 30.75 134.364 30.6C133.147 30.3667 132.205 29.9667 131.539 29.4C130.889 28.8333 130.564 27.9833 130.564 26.85C130.564 26.1 130.764 25.45 131.164 24.9C131.564 24.3333 132.105 23.9 132.789 23.6C133.489 23.2833 134.272 23.125 135.139 23.125C137.039 23.125 138.572 23.6583 139.739 24.725L138.014 26.975C137.614 26.5917 137.164 26.3167 136.664 26.15C136.18 25.9667 135.689 25.875 135.189 25.875C134.639 25.875 134.264 25.9667 134.064 26.15C133.864 26.3167 133.764 26.5167 133.764 26.75C133.764 26.9167 133.814 27.0667 133.914 27.2C134.014 27.3333 134.23 27.4667 134.564 27.6C134.897 27.7167 135.414 27.8583 136.114 28.025C137.497 28.3417 138.539 28.825 139.239 29.475C139.955 30.1083 140.314 30.9583 140.314 32.025C140.314 33.275 139.83 34.2083 138.864 34.825C137.914 35.4417 136.697 35.75 135.214 35.75ZM142.762 35.5V23.45H145.912V35.5H142.762ZM144.312 21.65C143.778 21.65 143.32 21.4583 142.937 21.075C142.57 20.6917 142.387 20.2333 142.387 19.7C142.387 19.1667 142.57 18.7167 142.937 18.35C143.32 17.9667 143.778 17.775 144.312 17.775C144.845 17.775 145.295 17.9667 145.662 18.35C146.045 18.7167 146.237 19.1667 146.237 19.7C146.237 20.2333 146.045 20.6917 145.662 21.075C145.295 21.4583 144.845 21.65 144.312 21.65ZM154.375 35.775C153.258 35.775 152.25 35.5167 151.35 35C150.466 34.4833 149.766 33.75 149.25 32.8C148.75 31.85 148.5 30.7417 148.5 29.475C148.5 28.1917 148.75 27.0833 149.25 26.15C149.766 25.2 150.466 24.4667 151.35 23.95C152.25 23.4167 153.258 23.15 154.375 23.15C155.508 23.15 156.516 23.4167 157.4 23.95C158.283 24.4667 158.975 25.2 159.475 26.15C159.991 27.0833 160.25 28.1917 160.25 29.475C160.25 30.7417 159.991 31.85 159.475 32.8C158.975 33.75 158.283 34.4833 157.4 35C156.516 35.5167 155.508 35.775 154.375 35.775ZM154.375 32.925C155.175 32.925 155.825 32.6333 156.325 32.05C156.841 31.45 157.1 30.5917 157.1 29.475C157.1 28.3417 156.841 27.4833 156.325 26.9C155.825 26.3 155.175 26 154.375 26C153.575 26 152.925 26.3 152.425 26.9C151.941 27.4833 151.7 28.3417 151.7 29.475C151.7 30.5917 151.941 31.45 152.425 32.05C152.925 32.6333 153.575 32.925 154.375 32.925ZM162.553 35.5V23.45H165.353L165.528 24.8C165.861 24.3667 166.286 23.9833 166.803 23.65C167.336 23.3167 167.961 23.15 168.678 23.15C169.928 23.15 170.944 23.55 171.728 24.35C172.528 25.15 172.928 26.3333 172.928 27.9V35.5H169.778V28.675C169.778 27.7917 169.603 27.125 169.253 26.675C168.919 26.225 168.461 26 167.878 26C167.244 26 166.719 26.2333 166.303 26.7C165.903 27.15 165.703 27.8667 165.703 28.85V35.5H162.553Z" fill="white"/>
</svg>
